<?xml version="1.0" encoding="utf-8"?>
<!-- Generator: Adobe Illustrator 16.0.0, SVG Export Plug-In . SVG Version: 6.00 Build 0)  -->
<!DOCTYPE svg PUBLIC "-//W3C//DTD SVG 1.1//EN" "http://www.w3.org/Graphics/SVG/1.1/DTD/svg11.dtd">
<svg version="1.1" xmlns="http://www.w3.org/2000/svg" xmlns:xlink="http://www.w3.org/1999/xlink" x="0px" y="0px"
	 width="841.89px" height="595.28px" viewBox="0 0 841.89 595.28" enable-background="new 0 0 841.89 595.28" xml:space="preserve">
<g id="圖層_1">
	<path id="_x30_01" fill="#FFFFFF" stroke="#000000" stroke-miterlimit="10" d="M270.403,167.644c0,6.627-5.373,12-12,12h-87.41
		c-6.627,0-12-5.373-12-12V90.973c0-6.627,5.373-12,12-12h87.41c6.627,0,12,5.373,12,12V167.644z"/>
	<path id="_x30_02" fill="#FFFFFF" stroke="#000000" stroke-miterlimit="10" d="M224.765,364.96c0,6.627-5.373,12-12,12h-70.631
		c-6.627,0-12-5.373-12-12v-90.765c0-6.627,5.373-12,12-12h70.631c6.627,0,12,5.373,12,12V364.96z"/>
	<path id="_x30_03" fill="#FFFFFF" stroke="#000000" stroke-miterlimit="10" d="M559.664,466.302c0,6.627-5.373,12-12,12H395.826
		c-6.627,0-12-5.373-12-12v-88.08c0-6.627,5.373-12,12-12h151.838c6.627,0,12,5.373,12,12V466.302z"/>
	<path id="_x30_04" fill="#FFFFFF" stroke="#000000" stroke-miterlimit="10" d="M471.745,187.778c0,6.627-5.373,12-12,12h-77.342
		c-6.627,0-12-5.373-12-12V86.275c0-6.627,5.373-12,12-12h77.342c6.627,0,12,5.373,12,12V187.778z"/>
	<path id="_x30_05" fill="#FFFFFF" stroke="#000000" stroke-miterlimit="10" d="M504.631,316.638c0,6.627-5.373,12-12,12H354.215
		c-6.627,0-12-5.373-12-12v-71.973c0-6.627,5.373-12,12-12h138.416c6.627,0,12,5.373,12,12V316.638z"/>
</g>
<g id="圖層_2">
</g>
</svg>
